<?xml version="1.0" encoding="iso-8859-1"?>
<!-- Generator: Adobe Illustrator 19.0.0, SVG Export Plug-In . SVG Version: 6.00 Build 0)  -->
<svg version="1.1" id="Layer_1" xmlns="http://www.w3.org/2000/svg" xmlns:xlink="http://www.w3.org/1999/xlink" x="0px" y="0px"
	 viewBox="0 0 511.976 511.976" style="enable-background:new 0 0 511.976 511.976;" xml:space="preserve">
<g>
	<g>
		<g>
			<path d="M498.018,90.806c-8.892-17.792-24.183-31.053-43.051-37.342c-18.876-6.281-39.049-4.847-56.841,4.036l-26.846,13.423
				c-8.098,4.053-14.839,9.992-19.908,17.152c-14.012-6.315-29.193-11.213-45.628-14.43c-1.024-0.154-25.429-3.814-49.792-3.814
				s-48.768,3.661-50.167,3.874c-16.102,3.166-31.232,8.047-45.218,14.353c-5.06-7.134-11.793-13.056-19.874-17.092l-26.837-13.423
				c-17.784-8.892-37.982-10.342-56.849-4.036c-18.867,6.289-34.159,19.55-43.051,37.342c-14.967,29.943-18.014,64.128-8.567,96.239
				l16.58,56.38c3.328,11.298,12.561,19.746,24.107,22.05c2.074,0.41,4.156,0.614,6.221,0.614c2.517,0,4.992-0.35,7.407-0.939
				c0,0.205-0.017,0.384-0.017,0.589c0,122.889,69.41,194.526,190.438,196.531c1.911,0.034,3.84,0.051,5.786,0.051
				s3.9-0.017,5.871-0.051c171.878-2.876,190.438-138.394,190.438-196.531c0-0.222-0.017-0.427-0.017-0.657
				c2.432,0.597,4.932,0.964,7.484,0.964c2.065,0,4.156-0.205,6.229-0.623c11.546-2.304,20.77-10.752,24.09-22.042l16.58-56.38
				C516.032,154.934,512.994,120.75,498.018,90.806z M255.953,283.165c19.14,0,34.133,11.247,34.133,25.6
				c0,14.353-14.993,25.6-34.133,25.6s-34.133-11.247-34.133-25.6C221.819,294.412,236.812,283.165,255.953,283.165z
				 M63.774,243.365c-0.435,0.367-0.853,0.742-1.263,1.161c-0.085,0.094-0.119,0.213-0.205,0.307
				c-3.413,3.371-8.073,4.915-12.894,3.942c-5.385-1.075-9.515-4.855-11.068-10.12l-16.58-56.38
				c-8.226-27.964-5.581-57.719,7.458-83.797c6.852-13.713,18.645-23.936,33.186-28.783c14.541-4.847,30.106-3.738,43.81,3.115
				l26.846,13.423c7.347,3.669,13.073,9.591,16.597,16.768c0.358,0.725,0.614,1.476,0.922,2.219
				c0.683,1.647,1.271,3.345,1.715,5.103c0.154,0.606,0.341,1.212,0.469,1.826c0.478,2.406,0.734,4.821,0.734,7.219
				c0,0.375-0.026,0.751-0.034,1.135c-0.077,2.449-0.341,4.881-0.887,7.253c-0.026,0.077-0.026,0.162-0.051,0.247
				c-0.58,2.415-1.459,4.753-2.526,7.014c-0.205,0.444-0.427,0.87-0.648,1.306c-1.152,2.21-2.458,4.36-4.062,6.349L63.774,243.365z
				 M179.153,180.765c18.816,0,34.133,15.309,34.133,34.133c0,18.816-15.317,34.133-34.133,34.133
				c-18.825,0-34.133-15.317-34.133-34.133C145.019,196.073,160.328,180.765,179.153,180.765z M365.734,364.24
				c-23.211,40.064-64.247,63.991-109.781,63.991s-86.571-23.927-109.781-63.991c-2.364-4.079-0.973-9.301,3.098-11.665
				c4.087-2.364,9.301-0.964,11.665,3.106c20.122,34.739,55.646,55.484,95.019,55.484s74.889-20.745,95.019-55.484
				c2.355-4.07,7.569-5.47,11.657-3.106C366.707,354.939,368.098,360.161,365.734,364.24z M332.753,291.698
				c-42.351,0-76.8-34.458-76.8-76.8c0-42.351,34.449-76.8,76.8-76.8c4.19,0,8.346,0.469,12.467,1.152
				c1.997,5.018,4.702,9.796,8.201,14.123l6.938,8.576c-8.499-4.446-18.014-6.784-27.605-6.784
				c-32.939,0-59.733,26.795-59.733,59.733c0,32.93,26.795,59.733,59.733,59.733c32.939,0,59.733-26.803,59.733-59.733
				c0-5.402-0.734-10.752-2.167-15.949l18.859,23.296C405.465,261.157,372.612,291.698,332.753,291.698z M366.886,214.898
				c0,18.816-15.317,34.133-34.133,34.133c-18.825,0-34.133-15.317-34.133-34.133c0-18.825,15.309-34.133,34.133-34.133
				C351.569,180.765,366.886,196.073,366.886,214.898z M490.218,182.232l-16.58,56.38c-1.553,5.265-5.683,9.045-11.068,10.121
				c-4.838,0.99-9.532-0.58-12.962-4.002c-0.077-0.094-0.111-0.205-0.188-0.29c-0.145-0.145-0.802-0.742-1.195-1.092l-75.674-93.474
				l-5.862-7.245c-1.604-1.971-2.91-4.122-4.053-6.332c-0.23-0.444-0.461-0.879-0.674-1.331c-1.05-2.244-1.928-4.565-2.5-6.972
				c-0.034-0.12-0.043-0.247-0.068-0.375c-0.538-2.33-0.802-4.719-0.879-7.125c-0.009-0.393-0.043-0.785-0.043-1.178
				c0.009-2.398,0.265-4.804,0.742-7.194c0.119-0.614,0.299-1.212,0.461-1.818c0.444-1.792,1.05-3.516,1.749-5.197
				c0.29-0.7,0.521-1.408,0.862-2.091c3.524-7.211,9.267-13.141,16.631-16.828l26.846-13.423c8.09-4.045,16.811-6.084,25.609-6.084
				c6.093,0,12.237,0.981,18.193,2.97c14.541,4.847,26.325,15.07,33.186,28.783C495.791,124.513,498.444,154.269,490.218,182.232z"
				/>
			<path d="M179.152,231.961c9.412,0,17.067-7.654,17.067-17.067c0-9.412-7.654-17.067-17.067-17.067
				c-9.412,0-17.067,7.654-17.067,17.067C162.085,224.307,169.74,231.961,179.152,231.961z"/>
			<path d="M255.952,317.295c10.419,0,17.067-5.052,17.067-8.533s-6.647-8.533-17.067-8.533s-17.067,5.052-17.067,8.533
				S245.533,317.295,255.952,317.295z"/>
			<path d="M315.685,214.895c0,9.412,7.654,17.067,17.067,17.067c9.412,0,17.067-7.654,17.067-17.067
				c0-9.412-7.654-17.067-17.067-17.067C323.34,197.828,315.685,205.482,315.685,214.895z"/>
		</g>
	</g>
</g>
<g>
</g>
<g>
</g>
<g>
</g>
<g>
</g>
<g>
</g>
<g>
</g>
<g>
</g>
<g>
</g>
<g>
</g>
<g>
</g>
<g>
</g>
<g>
</g>
<g>
</g>
<g>
</g>
<g>
</g>
</svg>
